<?xml version="1.0" standalone="no"?><!DOCTYPE svg PUBLIC "-//W3C//DTD SVG 1.1//EN" "http://www.w3.org/Graphics/SVG/1.1/DTD/svg11.dtd"><svg t="1733904813459" class="icon" viewBox="0 0 1024 1024" version="1.1" xmlns="http://www.w3.org/2000/svg" p-id="1438" xmlns:xlink="http://www.w3.org/1999/xlink" width="200" height="200"><path d="M51.2 85.3504v853.2992C51.2 985.8048 92.8256 1024 144.2816 1024h772.096c42.24 0 65.4848-23.9616 65.4848-67.9936 0-29.44-27.5456-60.0064-65.4336-60.0064H234.4448c-25.6 0-46.5408-19.2-46.5408-42.6496 0-23.5008 20.992-42.7008 46.5408-42.7008h654.336c51.4048 0 93.0816-38.1952 93.0816-85.2992v-640C981.8624 38.1952 940.1856 0 888.7808 0h-325.7344v405.0944a21.4528 21.4528 0 0 1-6.7584 15.36 24.9856 24.9856 0 0 1-33.024 0c-6.0416-5.7344-99.84-77.2096-99.84-77.2096S329.728 414.72 323.6864 420.4544a24.9856 24.9856 0 0 1-33.024 0 21.4528 21.4528 0 0 1-6.7584-15.36V0H144.2816C92.8256 0 51.2 38.1952 51.2 85.3504z" p-id="1439" fill="#6AA1B7"></path></svg>